<?xml version="1.0" encoding="iso-8859-1"?>
<!-- Generator: Adobe Illustrator 19.0.0, SVG Export Plug-In . SVG Version: 6.00 Build 0)  -->
<svg version="1.1" id="Capa_1" xmlns="http://www.w3.org/2000/svg" xmlns:xlink="http://www.w3.org/1999/xlink" x="0px" y="0px"
	 viewBox="0 0 512 512" style="enable-background:new 0 0 512 512;" xml:space="preserve">
<g>
	<path style="fill:#00CC71;" d="M443.621,86.612L469.124,64.8h-48.025l-67.068-20.625L341.374,57.3l28.686,43.138l13.297,58.801
		l24.214-23.73c21.736,30,44.429,63.975,44.429,120.546c0,44.553-16.379,87.502-46.899,121.058l29.683,55.523
		C485.062,385.398,512,323.093,512,256.054C512,186.285,485.898,135.402,443.621,86.612z"/>
	<path style="fill:#00CC71;" d="M448.7,460.001l-23.701-17.1C377.601,484.599,325.3,511.999,256,511.999
		c-74.7,0-145.3-34.9-191.8-95.199l45.899-39.6C143.101,423.4,197.8,449.8,256,450.1h0.901c56.398,0,87.398-21.301,117.398-40.8
		L347,390.999l93.3-34.499L448.7,460.001z"/>
</g>
<path style="fill:#00AB5E;" d="M448.7,460.001l-23.701-17.1C377.601,484.599,325.3,511.999,256,511.999V450.1h0.901
	c56.398,0,87.398-21.301,117.398-40.8L347,390.999l93.3-34.499L448.7,460.001z"/>
<path style="fill:#FBE000;" d="M271,211.3V92.4l-15,26.999L154.501,301.3H241v117.9l15-27.001L357.499,211.3H271z"/>
<path style="fill:#00AB5E;" d="M121.874,436.054l-5.654-92.49l-20.874,21.255C77.398,334.808,60,305.97,60,256.054
	c0-51.323,21.125-99.943,60.52-135.745L83.879,72.796C30.209,118.734,0,186.512,0,256.054c0,58.865,18.519,101.136,48.882,145.811
	l-21.68,17.944L121.874,436.054z"/>
<path style="fill:#00CC71;" d="M362,64.8l8.101,35.7c-31.8-26.1-72.1-39.9-114.101-39.9h-0.3c-52.5,0-82.299,18.6-112.299,36.601
	l26.1,19.799L71.1,136.2L75,39.599l22.5,18.9C143.699,22.201,192.1,0.001,256,0.001c61.199,0,119.5,22.5,165.099,64.799H362z"/>
<polygon style="fill:#FDBF00;" points="357.499,211.3 256,392.199 256,119.399 271,92.4 271,211.3 "/>
<path style="fill:#00AB5E;" d="M370.101,100.5c-31.8-26.1-72.1-39.9-114.101-39.9V0.001c61.199,0,119.5,22.5,165.099,64.799H362
	L370.101,100.5z"/>
<g>
</g>
<g>
</g>
<g>
</g>
<g>
</g>
<g>
</g>
<g>
</g>
<g>
</g>
<g>
</g>
<g>
</g>
<g>
</g>
<g>
</g>
<g>
</g>
<g>
</g>
<g>
</g>
<g>
</g>
</svg>
